# xmcd
# 
# Track frame offsets:
#     150
#     15097
#     32599
#     49915
#     67022
#     82106
#     98127
#     112456
#     136220
#     156161
#     176087
#     191719
# 
# Disc length: 2825
# 
# Revision: 9
# Processed by: cddbd v1.5.2PL0 Copyright (c) Steve Scherf et al.
# Submitted via: fre:ac v1.0.31
# 
DISCID=a40b070c
DTITLE=Eric Church - Sinners Like Me
DYEAR=2006
DGENRE=Country
TTITLE0=Before She Does
TTITLE1=Sinners Like Me
TTITLE2=How 'Bout You
TTITLE3=These Boots
TTITLE4=What I Almost Was
TTITLE5=The Hard Way
TTITLE6=Guys Like Me
TTITLE7=Lightning
TTITLE8=Can't Take It With You
TTITLE9=Pledge Allegiance To The Hag (Featuring Merle Haggard)
TTITLE10=Two Pink Lines
TTITLE11=Livin' Part Of Life
EXTD=
EXTT0=
EXTT1=
EXTT2=
EXTT3=
EXTT4=
EXTT5=
EXTT6=
EXTT7=
EXTT8=
EXTT9=
EXTT10=
EXTT11=
PLAYORDER=
